<?xml version="1.0" encoding="iso-8859-1"?>
<!-- Uploaded to: SVG Repo, www.svgrepo.com, Generator: SVG Repo Mixer Tools -->
<svg fill="#000000" version="1.1" id="Layer_1" xmlns="http://www.w3.org/2000/svg" xmlns:xlink="http://www.w3.org/1999/xlink" 
	 viewBox="0 0 512.001 512.001" xml:space="preserve">
<path d="M471.072,91.692l-5.108,15.121c1.227,0.425,30.075,10.825,30.075,45.669c0,35.151-29.102,46.795-30.304,47.259l5.605,14.945
	c1.66-0.622,40.66-15.781,40.66-62.203C512,115.242,485.229,96.433,471.072,91.692z"/>
<path d="M453.33,118.304l-5.15,15.106c1.266,0.456,12.376,4.866,12.376,19.072c0,14.503-11.344,19.45-12.563,19.937l5.605,14.945
	c0.935-0.351,22.919-8.893,22.919-34.882C476.517,126.37,454.277,118.621,453.33,118.304z"/>
<path d="M415.314,126.76c-14.183,0-25.721,11.54-25.721,25.722c0,14.183,11.539,25.721,25.721,25.721s25.722-11.539,25.722-25.721
	C441.036,138.299,429.497,126.76,415.314,126.76z M415.314,162.242c-5.473,0-9.761-4.287-9.761-9.761
	c0-5.383,4.379-9.762,9.761-9.762c5.383,0,9.762,4.379,9.762,9.762C425.075,157.864,420.696,162.242,415.314,162.242z"/>
<path d="M15.961,310.732c0-35.151,29.102-46.795,30.304-47.259l-5.605-14.945C39.001,249.151,0,264.309,0,310.732
	c0,37.24,26.771,56.049,40.929,60.79l5.108-15.121C44.808,355.975,15.961,345.576,15.961,310.732z"/>
<path d="M64.006,290.794L58.4,275.85c-0.935,0.351-22.919,8.893-22.919,34.882c0,26.112,22.24,33.861,23.187,34.178l5.15-15.106
	c-1.266-0.456-12.376-4.866-12.376-19.072C51.444,296.229,62.787,291.282,64.006,290.794z"/>
<path d="M122.407,310.732c0-14.183-11.539-25.721-25.721-25.721s-25.722,11.539-25.722,25.721c0,14.183,11.54,25.721,25.722,25.721
	S122.407,324.914,122.407,310.732z M86.924,310.732c0-5.382,4.379-9.761,9.762-9.761c5.382,0,9.761,4.379,9.761,9.761
	c0,5.382-4.379,9.761-9.761,9.761C91.304,320.492,86.924,316.113,86.924,310.732z"/>
<path d="M375.217,52.869H137.493v390.303H87.815v15.961h337.079v-15.961h-49.678V52.869H375.217z M153.454,68.83h205.802v374.342
	H153.454V68.83z"/>
<path d="M237.723,83.917H177.41v60.313h60.313V83.917z M221.763,128.268h-28.392V99.877h28.392V128.268z"/>
<path d="M335.299,83.917h-60.313v60.313h60.313L335.299,83.917L335.299,83.917z M319.338,128.268h-28.392V99.877h28.392V128.268z"/>
<path d="M237.723,159.315H177.41v60.313h60.313V159.315z M221.763,203.668h-28.392v-28.392h28.392V203.668z"/>
<path d="M335.299,159.315h-60.313v60.313h60.313L335.299,159.315L335.299,159.315z M319.338,203.668h-28.392v-28.392h28.392V203.668
	z"/>
<path d="M237.723,234.715H177.41v60.313h60.313V234.715z M221.763,279.066h-28.392v-28.392h28.392V279.066z"/>
<path d="M335.299,234.715h-60.313v60.313h60.313L335.299,234.715L335.299,234.715z M319.338,279.066h-28.392v-28.392h28.392V279.066
	z"/>
<path d="M237.723,310.114H177.41v60.314h60.313V310.114z M221.763,354.466h-28.392v-28.392h28.392V354.466z"/>
<path d="M335.299,310.114h-60.313v60.314h60.313L335.299,310.114L335.299,310.114z M319.338,354.466h-28.392v-28.392h28.392V354.466
	z"/>
<rect x="207.564" y="398.817" width="97.573" height="15.961"/>
<rect x="318.448" y="398.817" width="17.742" height="15.961"/>
<rect x="176.526" y="398.817" width="17.741" height="15.961"/>
</svg>